<svg xmlns="http://www.w3.org/2000/svg" style="display: none">
    <symbol
        id="ic-mic"
        viewBox="0 0 24 24"
        fill="none"
        stroke="currentColor"
        stroke-width="2"
        stroke-linecap="round"
        stroke-linejoin="round"
    >
        <path d="M12 2a3 3 0 0 1 3 3v7a3 3 0 0 1-6 0V5a3 3 0 0 1 3-3z" />
        <path d="M19 10v2a7 7 0 0 1-14 0v-2" />
        <line x1="12" y1="19" x2="12" y2="22" />
    </symbol>

    <symbol
        id="ic-play"
        viewBox="0 0 24 24"
        fill="none"
        stroke="currentColor"
        stroke-width="2"
        stroke-linecap="round"
        stroke-linejoin="round"
    >
        <polygon points="5 3 19 12 5 21 5 3" />
    </symbol>

    <symbol
        id="ic-tv"
        viewBox="0 0 24 24"
        fill="none"
        stroke="currentColor"
        stroke-width="2"
        stroke-linecap="round"
        stroke-linejoin="round"
    >
        <rect x="2" y="7" width="20" height="15" rx="2" />
        <polyline points="17 2 12 7 7 2" />
    </symbol>

    <symbol
        id="ic-clock"
        viewBox="0 0 24 24"
        fill="none"
        stroke="currentColor"
        stroke-width="2"
        stroke-linecap="round"
        stroke-linejoin="round"
    >
        <circle cx="12" cy="12" r="10" />
        <polyline points="12 6 12 12 16 14" />
    </symbol>

    <symbol
        id="ic-list"
        viewBox="0 0 24 24"
        fill="none"
        stroke="currentColor"
        stroke-width="2"
        stroke-linecap="round"
        stroke-linejoin="round"
    >
        <line x1="8" y1="6" x2="21" y2="6" />
        <line x1="8" y1="12" x2="21" y2="12" />
        <line x1="8" y1="18" x2="21" y2="18" />
        <line x1="3" y1="6" x2="3.01" y2="6" />
        <line x1="3" y1="12" x2="3.01" y2="12" />
        <line x1="3" y1="18" x2="3.01" y2="18" />
    </symbol>

    <symbol
        id="ic-search"
        viewBox="0 0 24 24"
        fill="none"
        stroke="currentColor"
        stroke-width="2"
        stroke-linecap="round"
        stroke-linejoin="round"
    >
        <circle cx="11" cy="11" r="8" />
        <line x1="21" y1="21" x2="16.65" y2="16.65" />
    </symbol>

    <symbol
        id="ic-download"
        viewBox="0 0 24 24"
        fill="none"
        stroke="currentColor"
        stroke-width="2"
        stroke-linecap="round"
        stroke-linejoin="round"
    >
        <path d="M21 15v4a2 2 0 0 1-2 2H5a2 2 0 0 1-2-2v-4" />
        <polyline points="7 10 12 15 17 10" />
        <line x1="12" y1="15" x2="12" y2="3" />
    </symbol>

    <symbol
        id="ic-trash"
        viewBox="0 0 24 24"
        fill="none"
        stroke="currentColor"
        stroke-width="2"
        stroke-linecap="round"
        stroke-linejoin="round"
    >
        <polyline points="3 6 5 6 21 6" />
        <path d="M19 6l-1 14a2 2 0 0 1-2 2H8a2 2 0 0 1-2-2L5 6" />
        <path d="M10 11v6" />
        <path d="M14 11v6" />
        <path d="M9 6V4h6v2" />
    </symbol>

    <symbol
        id="ic-link"
        viewBox="0 0 24 24"
        fill="none"
        stroke="currentColor"
        stroke-width="2"
        stroke-linecap="round"
        stroke-linejoin="round"
    >
        <path d="M10 13a5 5 0 0 0 7.54.54l3-3a5 5 0 0 0-7.07-7.07l-1.72 1.71" />
        <path
            d="M14 11a5 5 0 0 0-7.54-.54l-3 3a5 5 0 0 0 7.07 7.07l1.71-1.71"
        />
    </symbol>

    <symbol
        id="ic-arrow-left"
        viewBox="0 0 24 24"
        fill="none"
        stroke="currentColor"
        stroke-width="2"
        stroke-linecap="round"
        stroke-linejoin="round"
    >
        <line x1="19" y1="12" x2="5" y2="12" />
        <polyline points="12 19 5 12 12 5" />
    </symbol>

    <symbol
        id="ic-check"
        viewBox="0 0 24 24"
        fill="none"
        stroke="currentColor"
        stroke-width="2.5"
        stroke-linecap="round"
        stroke-linejoin="round"
    >
        <polyline points="20 6 9 17 4 12" />
    </symbol>

    <symbol
        id="ic-zap"
        viewBox="0 0 24 24"
        fill="none"
        stroke="currentColor"
        stroke-width="2"
        stroke-linecap="round"
        stroke-linejoin="round"
    >
        <polygon points="13 2 3 14 12 14 11 22 21 10 12 10 13 2" />
    </symbol>

    <symbol
        id="ic-ok"
        viewBox="0 0 24 24"
        fill="none"
        stroke="currentColor"
        stroke-width="2"
        stroke-linecap="round"
        stroke-linejoin="round"
    >
        <path d="M22 11.08V12a10 10 0 1 1-5.93-9.14" />
        <polyline points="22 4 12 14.01 9 11.01" />
    </symbol>

    <symbol
        id="ic-alert"
        viewBox="0 0 24 24"
        fill="none"
        stroke="currentColor"
        stroke-width="2"
        stroke-linecap="round"
        stroke-linejoin="round"
    >
        <circle cx="12" cy="12" r="10" />
        <line x1="12" y1="8" x2="12" y2="12" />
        <line x1="12" y1="16" x2="12.01" y2="16" />
    </symbol>

    <symbol
        id="ic-copy"
        viewBox="0 0 24 24"
        fill="none"
        stroke="currentColor"
        stroke-width="2"
        stroke-linecap="round"
        stroke-linejoin="round"
    >
        <rect x="9" y="9" width="13" height="13" rx="2" />
        <path d="M5 15H4a2 2 0 0 1-2-2V4a2 2 0 0 1 2-2h9a2 2 0 0 1 2 2v1" />
    </symbol>
</svg>
